<?xml version="1.0"?>
<svg xmlns="http://www.w3.org/2000/svg" xmlns:xlink="http://www.w3.org/1999/xlink" version="1.1" id="Layer_1" x="0px" y="0px" viewBox="0 0 496.159 496.159" style="enable-background:new 0 0 496.159 496.159;" xml:space="preserve" width="512px" height="512px" class=""><g><path style="fill:#FFE1A2" d="M248.083,0.003C111.071,0.003,0,111.063,0,248.085c0,137.001,111.07,248.07,248.083,248.07  c137.006,0,248.076-111.069,248.076-248.07C496.159,111.062,385.089,0.003,248.083,0.003z" data-original="#4ABC96" class="active-path" data-old_color="#4ABC96"/><path style="fill:#E5E2D1" d="M292.588,103.486c-5.103,3.756-22.194,21.75-45.642,21.75c-23.454,0-36.815-18.453-45.642-21.75  c-1.327-0.497-3.435-0.65-5.938-0.581c2.783,2.884,5.938,6.204,5.938,6.204c6.713,5.248,22.188,21.742,45.642,21.742  c23.448,0,40.539-17.994,45.642-21.742c0,0,3.106-3.175,5.252-6.885C295.587,102.293,293.713,102.66,292.588,103.486z" data-original="#E5E2D1" class=""/><path style="fill:#EFEDE6;" d="M395.653,127.049c0,0-89.822-25.062-97.813-24.825c-9.93,11.009-27.446,28.627-50.894,28.627  c-23.454,0-42.979-19.745-51.581-27.946c-8.92,0.252-94.72,24.144-94.72,24.144c-9.379,2.486-6.214,10.695-4.179,18.33l10.6,39.942  c2.031,7.627,2.153,11.797,11.533,9.311l29.205-7.758v189.62c0,22.332,18.103,16.846,40.445,16.846h116.835  c22.341,0,40.445,5.485,40.445-16.846V186.087l32.169,8.545c0.897,0.229,1.631,0.359,2.368,0.474l16.909-67.529  C396.529,127.401,396.173,127.187,395.653,127.049z" data-original="#EFEDE6" class=""/><g>
	<path style="fill:#E5E2D1" d="M396.976,127.577l-16.909,67.529c6.99,1.14,7.335-2.884,9.167-9.785l10.607-39.942   C401.764,138.181,404.552,130.522,396.976,127.577z" data-original="#E5E2D1" class=""/>
	<path style="fill:#E5E2D1" d="M99.179,127.577c-7.576,2.945-4.779,10.604-2.855,17.802l10.594,39.942   c1.833,6.9,2.18,10.925,9.171,9.785L99.179,127.577z" data-original="#E5E2D1" class=""/>
</g></g> </svg>
