<?xml version="1.0" encoding="UTF-8"?>
<svg width="48px" height="48px" viewBox="0 0 48 48" version="1.1" xmlns="http://www.w3.org/2000/svg" xmlns:xlink="http://www.w3.org/1999/xlink">
    <!-- Generator: Sketch 60 (88103) - https://sketch.com -->
    <title>Group 30 Copy</title>
    <desc>Created with Sketch.</desc>
    <g id="components" stroke="none" stroke-width="1" fill="none" fill-rule="evenodd">
        <g id="new-products-auction" transform="translate(-850.000000, -429.000000)">
            <g id="Social-media-№7" transform="translate(848.000000, 398.000000)">
                <g id="Group-30-Copy" transform="translate(2.000000, 31.000000)">
                    <rect id="Rectangle-Copy-59" fill="#F8F9FA" x="0" y="0" width="48" height="48" rx="24"></rect>
                    <g id="facebook-logo-(1)-copy-8" transform="translate(18.000000, 13.000000)" fill="#5A5A5A" fill-rule="nonzero">
                        <path d="M11.3409057,0.00453608247 L8.51864151,0 C5.34792453,0 3.29886792,2.10587629 3.29886792,5.36527835 L3.29886792,7.83903093 L0.461207547,7.83903093 C0.216,7.83903093 0.0174339623,8.03816495 0.0174339623,8.28379381 L0.0174339623,11.8679794 C0.0174339623,12.1136082 0.216226415,12.3125155 0.461207547,12.3125155 L3.29886792,12.3125155 L3.29886792,21.3565567 C3.29886792,21.6021856 3.49743396,21.8010928 3.74264151,21.8010928 L7.44498113,21.8010928 C7.69018868,21.8010928 7.88875472,21.6019588 7.88875472,21.3565567 L7.88875472,12.3125155 L11.2066415,12.3125155 C11.4518491,12.3125155 11.6504151,12.1136082 11.6504151,11.8679794 L11.6517736,8.28379381 C11.6517736,8.16585567 11.6049057,8.05290722 11.5218113,7.9694433 C11.438717,7.88597938 11.3255094,7.83903093 11.2077736,7.83903093 L7.88875472,7.83903093 L7.88875472,5.742 C7.88875472,4.73408247 8.1285283,4.22241237 9.43924528,4.22241237 L11.3404528,4.22173196 C11.585434,4.22173196 11.784,4.02259794 11.784,3.77719588 L11.784,0.449072165 C11.784,0.203896907 11.5856604,0.00498969072 11.3409057,0.00453608247 Z" id="Path"></path>
                    </g>
                </g>
            </g>
        </g>
    </g>
</svg>