<svg height="512" viewBox="0 0 512 512" width="512" xmlns="http://www.w3.org/2000/svg"><g id="Filled_outline" data-name="Filled outline"><path d="m368 267.708v-67.708h-80v67.708a16 16 0 0 1 -11.877 15.459l-72.491 19.333a48 48 0 0 0 -35.632 46.377v139.123h320v-139.123a48 48 0 0 0 -35.632-46.377l-72.491-19.331a16 16 0 0 1 -11.877-15.461z" fill="#fec9a3"/><path d="m368 251.859v-27.859h-80v27.859a71.963 71.963 0 0 0 80 0z" fill="#feb784"/><path d="m452.368 302.5-69.668-18.581a55.978 55.978 0 0 1 -109.4 0l-69.668 18.581a48 48 0 0 0 -35.632 46.377v83.123h64v56h192v-88h64v-51.123a48 48 0 0 0 -35.632-46.377z" fill="#f35244"/><path d="m452.368 302.5-10.17-2.712c-55.06 103.818-129.386 160.212-178.526 188.212h160.328v-88h64v-51.123a48 48 0 0 0 -35.632-46.377z" fill="#ea4a3b"/><path d="m400 112v64a72 72 0 1 1 -144 0v-64a72.006 72.006 0 0 1 72-72 73.291 73.291 0 0 1 8.16.46 72.015 72.015 0 0 1 63.84 71.54z" fill="#fec9a3"/><path d="m400 112v64a72.052 72.052 0 0 1 -90.83 69.51 72.032 72.032 0 0 0 53.16-69.51v-80a71.775 71.775 0 0 0 -21.09-50.91q-2.43-2.43-5.08-4.63a72.015 72.015 0 0 1 63.84 71.54z" fill="#fec093"/><path d="m280 64h88v16h-88z" fill="#fec093"/><path d="m256 120v-32c0-26.51 17.909-48 40-48l-1.408 5.068c-7.842 28.232-21.055 53.888-38.592 74.932z" fill="#95573a"/><path d="m400 120v-55.015a25.754 25.754 0 0 0 -32-24.985v24s14.463 34.956 32 56z" fill="#95573a"/><path d="m368 64h-72a40 40 0 0 1 -40-40h73.373a54.626 54.626 0 0 1 38.627 16z" fill="#82462a"/><path d="m256 120h-8a24 24 0 0 0 0 48h8z" fill="#feb784"/><path d="m408 120h-8v48h8a24 24 0 0 0 0-48z" fill="#feb784"/><path d="m224 360h16v128h-16z" fill="#de4132"/><path d="m56 456h280v32h-280z" fill="#bfbfbd"/><path d="m241.666 488h-170.979a18.31 18.31 0 0 1 -17.873-14.337l-28.471-128.118a14.433 14.433 0 0 1 -.343-3.128 14.417 14.417 0 0 1 14.417-14.417h178.546a18.342 18.342 0 0 1 17.986 14.745l24.671 123.355a18.309 18.309 0 0 1 -17.954 21.9z" fill="#e0e0de"/><path d="m238.022 358.112c-57.18 71.967-134.61 102.062-185.439 114.513l.231 1.038a18.308 18.308 0 0 0 17.873 14.337h170.98a18.309 18.309 0 0 0 17.953-21.9z" fill="#d6d6d4"/><ellipse cx="136" cy="408" fill="#ebebe9" rx="15.31" ry="16.721" transform="matrix(.691 -.723 .723 .691 -252.812 224.193)"/><path d="m454.431 294.771-72.489-19.331a8.011 8.011 0 0 1 -5.942-7.73v-27.744a79.8 79.8 0 0 0 32-63.966 32 32 0 0 0 0-64v-47.016a33.743 33.743 0 0 0 -37.469-33.541 62.149 62.149 0 0 0 -41.158-15.443h-73.373a8 8 0 0 0 -8 8 47.754 47.754 0 0 0 10.175 29.5 61.462 61.462 0 0 0 -10.175 34.5v24a32 32 0 1 0 0 64 79.793 79.793 0 0 0 32 63.967v27.743a8.012 8.012 0 0 1 -5.941 7.73l-72.49 19.33a55.985 55.985 0 0 0 -33.528 25.23h-129.624a22.416 22.416 0 0 0 -21.883 27.28l28.466 128.12c.612 2.751 6.663 19.6 25.663 20.6h417.337a8 8 0 0 0 8-8v-139.12a56.06 56.06 0 0 0 -41.569-54.109zm-158.431-27.061v-18.394a79.948 79.948 0 0 0 64 0v18.394a24.028 24.028 0 0 0 12.876 21.244 47.956 47.956 0 0 1 -89.752 0 24.027 24.027 0 0 0 12.876-21.244zm128-123.71a16.019 16.019 0 0 1 -16 16v-32a16.019 16.019 0 0 1 16 16zm-32-79.016v29.151a315.751 315.751 0 0 1 -16-31.768v-15.06a17.78 17.78 0 0 1 16 17.677zm-62.627-32.984a46.284 46.284 0 0 1 30.627 11.466v12.534h-64a32.058 32.058 0 0 1 -30.988-24zm-65.373 56a46.794 46.794 0 0 1 6.192-23.56 47.883 47.883 0 0 0 7.7 4 189.935 189.935 0 0 1 -13.892 26.881zm-32 56a16.019 16.019 0 0 1 16-16v32a16.019 16.019 0 0 1 -16-16zm32 32v-53.152a200.823 200.823 0 0 0 29.761-50.9c.743.035 1.488.057 2.239.057h66.75c4.537 10.166 15.768 33.778 29.25 50.832v53.163a64 64 0 0 1 -128 0zm-193.313 304a10.246 10.246 0 0 1 -10.063-8.072l-28.471-128.116a6.419 6.419 0 0 1 6.264-7.812h178.546a10.369 10.369 0 0 1 10.141 8.314l24.671 123.355a10.308 10.308 0 0 1 -10.108 12.331zm257.313 0h-62.124a26.222 26.222 0 0 0 1.589-15.469l-.106-.531h60.641zm16 0v-24a8 8 0 0 0 -8-8h-71.842l-21.365-106.823a26.411 26.411 0 0 0 -25.83-21.177h-28.621a39.965 39.965 0 0 1 17.349-9.771l62.11-16.562a63.969 63.969 0 0 0 120.4 0l62.109 16.563a40.044 40.044 0 0 1 29.69 38.65v43.12h-48v-24h-16v112zm88 0v-72h48v72z"/><path d="m304 188.56h16.934a115.037 115.037 0 0 0 33.385-4.9l-4.638-15.312a99.1 99.1 0 0 1 -28.747 4.216h-16.934z"/><path d="m292 144a12 12 0 1 0 -12-12 12.013 12.013 0 0 0 12 12z"/><path d="m364 144a12 12 0 1 0 -12-12 12.013 12.013 0 0 0 12 12z"/><path d="m134.588 384a22.412 22.412 0 0 0 -22.557 24.7 25.683 25.683 0 0 0 25.381 23.3 22.412 22.412 0 0 0 22.557-24.7 25.683 25.683 0 0 0 -25.381-23.3zm7.8 29.934a6.634 6.634 0 0 1 -4.98 2.066 9.819 9.819 0 0 1 -9.443-8.7 6.748 6.748 0 0 1 1.639-5.231 6.634 6.634 0 0 1 4.98-2.066 9.819 9.819 0 0 1 9.443 8.7 6.748 6.748 0 0 1 -1.635 5.231z"/></g></svg>