<?xml version="1.0" encoding="UTF-8"?>
<svg width="48px" height="48px" viewBox="0 0 48 48" version="1.1" xmlns="http://www.w3.org/2000/svg" xmlns:xlink="http://www.w3.org/1999/xlink">
    <!-- Generator: Sketch 60 (88103) - https://sketch.com -->
    <title>Group 31 Copy</title>
    <desc>Created with Sketch.</desc>
    <g id="components" stroke="none" stroke-width="1" fill="none" fill-rule="evenodd">
        <g id="new-products-auction" transform="translate(-924.000000, -429.000000)">
            <g id="Social-media-№7" transform="translate(848.000000, 398.000000)">
                <g id="Group-31-Copy" transform="translate(76.000000, 31.000000)">
                    <rect id="Rectangle-Copy-60" fill="#F8F9FA" x="0" y="0" width="48" height="48" rx="24"></rect>
                    <g id="kakao-round-icon" transform="translate(19.000000, 15.000000)" fill="#5A5A5A" fill-rule="nonzero">
                        <path d="M9.15252042,0 L1.84778936,0 C0.827400732,0 0,0.78842679 0,1.76104614 L0,8.83386318 C0,9.80648253 0.827400732,10.5949093 1.84778936,10.5949093 L5.12672487,10.5949093 C5.06074345,11.6182997 4.59205858,13.9283813 1.8858913,15.87362 C1.8858913,15.87362 1.36981132,16.2245895 1.75268938,16.701601 C2.13618699,17.179498 4.77296536,19.8886635 4.77296536,19.8886635 C4.77296536,19.8886635 5.05764573,20.1785307 5.59850746,19.8228383 C6.16817798,19.4485496 10.6666854,16.6219023 11,8.83386318 L11,1.76104614 C11,0.78842679 10.172909,0 9.15252042,0 Z" id="Path"></path>
                    </g>
                </g>
            </g>
        </g>
    </g>
</svg>