<svg height="512pt" viewBox="-2 0 511 512" width="512pt" xmlns="http://www.w3.org/2000/svg"><path d="m382.699219 29.5c-69.152344 0-125.207031 36.554688-125.207031 107.074219s56.054687 127.675781 125.207031 127.675781c69.144531 0 125.195312-57.15625 125.195312-127.675781s-56.050781-107.074219-125.195312-107.074219zm0 0" fill="#fbc4ac"/><path d="m282.214844 136.574219c0-66.265625 49.496094-120.730469 112.84375-127.058594-4.066406-.410156-8.1875-.621094-12.359375-.621094-69.152344 0-125.207031 57.160157-125.207031 127.679688s56.054687 127.675781 125.207031 127.675781c4.171875 0 8.292969-.210938 12.359375-.617188-63.347656-6.332031-112.84375-60.796874-112.84375-127.058593zm0 0" fill="#e3b098"/><path d="m449.433594 163.34375c-4.269532 0-7.726563-3.457031-7.726563-7.726562v-12.976563c0-4.265625 3.457031-7.726563 7.726563-7.726563 4.269531 0 7.726562 3.460938 7.726562 7.726563v12.976563c0 4.269531-3.457031 7.726562-7.726562 7.726562zm0 0" fill="#3a484a"/><path d="m458.269531 182.417969h-17.671875c-4.269531 0-7.726562-3.460938-7.726562-7.726563s3.457031-7.726562 7.726562-7.726562h17.671875c4.269531 0 7.726563 3.460937 7.726563 7.726562s-3.457032 7.726563-7.726563 7.726563zm0 0" fill="#f98084"/><path d="m315.953125 163.34375c-4.269531 0-7.726563-3.457031-7.726563-7.726562v-12.976563c0-4.265625 3.457032-7.726563 7.726563-7.726563s7.726563 3.460938 7.726563 7.726563v12.976563c0 4.269531-3.457032 7.726562-7.726563 7.726562zm0 0" fill="#3a484a"/><path d="m324.789062 182.417969h-17.671874c-4.269532 0-7.726563-3.460938-7.726563-7.726563s3.457031-7.726562 7.726563-7.726562h17.671874c4.269532 0 7.726563 3.460937 7.726563 7.726562s-3.457031 7.726563-7.726563 7.726563zm0 0" fill="#f98084"/><path d="m382.691406 181.683594c-6.882812 0-13.351562-2.886719-17.753906-7.921875-2.808594-3.214844-2.476562-8.09375.734375-10.902344 3.214844-2.808594 8.09375-2.480469 10.902344.734375 1.464843 1.675781 3.695312 2.636719 6.117187 2.636719s4.65625-.960938 6.121094-2.640625c2.808594-3.210938 7.6875-3.539063 10.902344-.730469s3.542968 7.691406.730468 10.902344c-4.398437 5.035156-10.871093 7.921875-17.753906 7.921875zm0 0" fill="#3a484a"/><path d="m501.902344 97.449219c-8.597656-104.671875-50.804688-88.554688-119.203125-88.554688-51.710938 0-76.542969-5.175781-87.121094-8.476562-4.230469-1.324219-8.785156.582031-10.796875 4.53125-8.445312 16.574219-27.289062 61.410156-27.289062 131.625 0 0 29.945312-53.925781 125.203124-53.925781 44.316407 0 40.609376 14.800781 119.207032 14.800781zm0 0" fill="#c86d5c"/><path d="m309.507812 4.949219c.195313-.382813.417969-.742188.660157-1.082031-6.53125-1.191407-11.265625-2.414063-14.589844-3.449219-4.230469-1.324219-8.785156.582031-10.796875 4.53125-8.445312 16.574219-27.289062 61.410156-27.289062 131.625 0 0 7.167968-12.894531 25.621093-26.070313 3.832031-55.308594 19.042969-91.136718 26.394531-105.554687zm0 0" fill="#ad4f3d"/><path d="m.589844 379.375v82.308594c0 20.503906 15.417968 37.734375 35.800781 40l59.160156 6.582031zm0 0" fill="#3a484a"/><path d="m250.808594 379.375v82.308594c0 20.503906-15.414063 37.734375-35.796875 40l-59.160157 6.582031zm0 0" fill="#3a484a"/><path d="m250.808594 379.375c-.007813.011719-.007813.011719-.007813.011719l-127.878906-96.675781-122.320313 96.675781-.011718-.011719c-.058594 1.644531-.089844 3.285156-.089844 4.941406 0 70.519532 56.050781 127.683594 125.199219 127.683594 69.152343 0 125.203125-57.164062 125.203125-127.683594 0-1.652344-.03125-3.296875-.09375-4.941406zm0 0" fill="#fbc4ac"/><path d="m21.300781 375.308594c-6.761719 1.890625-13.679687 3.300781-20.699219 4.078125l-.011718-.011719c-.058594 1.644531-.089844 3.285156-.089844 4.941406 0 70.519532 56.050781 127.683594 125.199219 127.683594 3.574219 0 7.109375-.160156 10.605469-.460938-62.175782-5.679687-111.558594-63.875-115.003907-136.230468zm0 0" fill="#e3b098"/><path d="m58.960938 411.085938c-4.265626 0-7.726563-3.457032-7.726563-7.726563v-12.976563c0-4.265624 3.460937-7.726562 7.726563-7.726562 4.269531 0 7.726562 3.460938 7.726562 7.726562v12.976563c0 4.269531-3.457031 7.726563-7.726562 7.726563zm0 0" fill="#3a484a"/><path d="m67.796875 430.160156h-17.671875c-4.269531 0-7.726562-3.457031-7.726562-7.726562 0-4.265625 3.457031-7.726563 7.726562-7.726563h17.671875c4.269531 0 7.726563 3.460938 7.726563 7.726563 0 4.269531-3.457032 7.726562-7.726563 7.726562zm0 0" fill="#f98084"/><path d="m192.441406 411.085938c-4.265625 0-7.726562-3.457032-7.726562-7.726563v-12.976563c0-4.265624 3.460937-7.726562 7.726562-7.726562 4.269532 0 7.726563 3.460938 7.726563 7.726562v12.976563c0 4.269531-3.457031 7.726563-7.726563 7.726563zm0 0" fill="#3a484a"/><path d="m201.277344 430.160156h-17.671875c-4.269531 0-7.726563-3.457031-7.726563-7.726562 0-4.265625 3.457032-7.726563 7.726563-7.726563h17.671875c4.269531 0 7.726562 3.460938 7.726562 7.726563 0 4.269531-3.457031 7.726562-7.726562 7.726562zm0 0" fill="#f98084"/><path d="m125.699219 429.429688c-6.882813 0-13.351563-2.886719-17.753907-7.925782-2.808593-3.210937-2.476562-8.09375.734376-10.902344 3.210937-2.804687 8.09375-2.476562 10.902343.734376 1.464844 1.679687 3.695313 2.640624 6.117188 2.640624s4.65625-.960937 6.121093-2.640624c2.808594-3.210938 7.691407-3.539063 10.902344-.730469 3.214844 2.808593 3.542969 7.6875.734375 10.902343-4.402343 5.035157-10.875 7.921876-17.757812 7.921876zm0 0" fill="#3a484a"/><path d="m.589844 379.375.011718.011719c67.195313-7.433594 125.097657-72.335938 125.097657-72.335938s57.90625 64.902344 125.101562 72.335938c0 0 0 0 .007813-.011719-2.542969-68.226562-57.578125-122.734375-125.109375-122.734375-67.527344 0-122.5625 54.507813-125.109375 122.734375zm0 0" fill="#3a484a"/><path d="m136.519531 257.121094c-3.566406-.3125-7.171875-.480469-10.820312-.480469-67.527344 0-122.5625 54.507813-125.109375 122.738281l.011718.007813c7.425782-.820313 13.566407-2.019531 20.699219-4.078125 4.433594-62.507813 54.144531-112.859375 115.21875-118.1875zm0 0" fill="#323e40"/><path d="m203.238281 174.039062v-77.175781c0-27.570312-22.347656-49.921875-49.921875-49.921875h-102.894531c-27.570313 0-49.921875 22.351563-49.921875 49.921875v70.527344c0 27.570313 22.351562 49.917969 49.921875 49.917969h176.726563zm0 0" fill="#58b78c"/><g fill="#efedee"><path d="m155.757812 104.589844h-107.777343c-4.265625 0-7.726563-3.460938-7.726563-7.726563 0-4.269531 3.460938-7.726562 7.726563-7.726562h107.777343c4.269532 0 7.726563 3.457031 7.726563 7.726562 0 4.265625-3.457031 7.726563-7.726563 7.726563zm0 0"/><path d="m155.757812 139.851562h-107.777343c-4.265625 0-7.726563-3.457031-7.726563-7.726562 0-4.265625 3.460938-7.726562 7.726563-7.726562h107.777343c4.269532 0 7.726563 3.460937 7.726563 7.726562 0 4.269531-3.457031 7.726562-7.726563 7.726562zm0 0"/><path d="m115.195312 175.117188h-67.214843c-4.265625 0-7.726563-3.460938-7.726563-7.726563 0-4.269531 3.460938-7.726563 7.726563-7.726563h67.214843c4.265626 0 7.726563 3.457032 7.726563 7.726563 0 4.265625-3.460937 7.726563-7.726563 7.726563zm0 0"/></g><path d="m305.15625 426.234375v-77.179687c0-27.570313 22.351562-49.917969 49.921875-49.917969h102.894531c27.570313 0 49.921875 22.347656 49.921875 49.917969v70.527343c0 27.570313-22.351562 49.921875-49.921875 49.921875h-176.726562zm0 0" fill="#f2c42c"/><path d="m460.414062 356.785156h-107.777343c-4.269531 0-7.726563-3.460937-7.726563-7.726562 0-4.269532 3.457032-7.726563 7.726563-7.726563h107.777343c4.269532 0 7.726563 3.457031 7.726563 7.726563 0 4.265625-3.460937 7.726562-7.726563 7.726562zm0 0" fill="#efedee"/><path d="m460.414062 392.046875h-107.777343c-4.269531 0-7.726563-3.460937-7.726563-7.726563 0-4.265624 3.457032-7.726562 7.726563-7.726562h107.777343c4.269532 0 7.726563 3.460938 7.726563 7.726562 0 4.265626-3.460937 7.726563-7.726563 7.726563zm0 0" fill="#efedee"/><path d="m460.414062 427.3125h-67.214843c-4.265625 0-7.726563-3.460938-7.726563-7.726562 0-4.269532 3.460938-7.726563 7.726563-7.726563h67.214843c4.265626 0 7.726563 3.457031 7.726563 7.726563 0 4.265624-3.460937 7.726562-7.726563 7.726562zm0 0" fill="#efedee"/></svg>