<svg xmlns="http://www.w3.org/2000/svg" height="704pt" version="1.1" viewBox="0 -11 704.01211 704" width="704pt">
<g id="surface1">
<path d="M 109.332031 566.40625 L 109.332031 682.007812 L 594.730469 682.007812 L 594.730469 566.40625 Z M 109.332031 566.40625 " style=" stroke:none;fill-rule:nonzero;fill:rgb(42.745098%,43.137255%,44.313725%);fill-opacity:1;" />
<path d="M 352.03125 265.90625 C 249.929688 265.90625 167.128906 348.707031 167.128906 450.804688 L 167.128906 566.40625 L 352.03125 566.40625 Z M 352.03125 265.90625 " style=" stroke:none;fill-rule:nonzero;fill:rgb(67.058824%,13.72549%,0%);fill-opacity:1;" />
<path d="M 536.929688 450.804688 C 536.929688 348.707031 454.128906 265.90625 352.03125 265.90625 L 352.03125 312.105469 C 428.628906 312.207031 490.628906 374.207031 490.730469 450.804688 C 490.628906 374.207031 428.628906 312.207031 352.03125 312.105469 L 352.03125 566.40625 L 536.929688 566.40625 Z M 536.929688 450.804688 " style=" stroke:none;fill-rule:nonzero;fill:rgb(80.392157%,16.470588%,0%);fill-opacity:1;" />
<path d="M 352.03125 208.105469 C 345.628906 208.105469 340.429688 202.90625 340.429688 196.507812 L 340.429688 11.605469 C 340.429688 5.207031 345.628906 0.0078125 352.03125 0.0078125 C 358.429688 0.0078125 363.628906 5.207031 363.628906 11.605469 L 363.628906 196.507812 C 363.628906 202.90625 358.429688 208.105469 352.03125 208.105469 Z M 352.03125 208.105469 " style=" stroke:none;fill-rule:nonzero;fill:rgb(100%,31.372549%,13.72549%);fill-opacity:1;" />
<path d="M 248.03125 235.90625 C 243.929688 235.90625 240.03125 233.707031 238.03125 230.105469 L 145.53125 70.007812 C 142.332031 64.507812 144.128906 57.40625 149.628906 54.207031 C 155.128906 51.007812 162.230469 52.804688 165.429688 58.304688 C 165.429688 58.304688 165.53125 58.40625 165.53125 58.40625 L 258.03125 218.605469 C 261.230469 224.105469 259.332031 231.207031 253.832031 234.40625 C 252.03125 235.40625 250.03125 235.90625 248.03125 235.90625 Z M 248.03125 235.90625 " style=" stroke:none;fill-rule:nonzero;fill:rgb(100%,31.372549%,13.72549%);fill-opacity:1;" />
<path d="M 171.832031 312.105469 C 169.832031 312.105469 167.832031 311.605469 166.03125 310.605469 L 5.832031 218.105469 C 0.332031 214.90625 -1.667969 207.90625 1.53125 202.304688 C 4.730469 196.707031 11.730469 194.804688 17.332031 198.007812 C 17.332031 198.007812 17.429688 198.105469 17.429688 198.105469 L 177.628906 290.605469 C 183.128906 293.804688 185.03125 300.90625 181.832031 306.40625 C 179.730469 309.90625 175.929688 312.105469 171.832031 312.105469 Z M 171.832031 312.105469 " style=" stroke:none;fill-rule:nonzero;fill:rgb(100%,31.372549%,13.72549%);fill-opacity:1;" />
<path d="M 532.230469 312.105469 C 525.832031 312.105469 520.628906 306.90625 520.628906 300.507812 C 520.628906 296.40625 522.832031 292.605469 526.429688 290.507812 L 686.628906 198.007812 C 692.128906 194.804688 699.230469 196.605469 702.429688 202.105469 C 705.628906 207.605469 703.832031 214.707031 698.332031 217.90625 C 698.332031 217.90625 698.230469 218.007812 698.230469 218.007812 L 538.03125 310.605469 C 536.230469 311.605469 534.230469 312.105469 532.230469 312.105469 Z M 532.230469 312.105469 " style=" stroke:none;fill-rule:nonzero;fill:rgb(100%,31.372549%,13.72549%);fill-opacity:1;" />
<path d="M 456.03125 235.90625 C 449.628906 235.90625 444.429688 230.707031 444.53125 224.304688 C 444.53125 222.304688 445.03125 220.304688 446.03125 218.507812 L 538.53125 58.304688 C 541.730469 52.804688 548.832031 50.90625 554.332031 54.207031 C 559.832031 57.40625 561.628906 64.40625 558.53125 69.90625 L 466.03125 230.105469 C 464.03125 233.707031 460.230469 236.007812 456.03125 235.90625 Z M 456.03125 235.90625 " style=" stroke:none;fill-rule:nonzero;fill:rgb(100%,31.372549%,13.72549%);fill-opacity:1;" />
<path d="M 490.730469 462.40625 C 484.332031 462.40625 479.128906 457.207031 479.128906 450.804688 C 479.03125 380.605469 422.128906 323.707031 351.929688 323.605469 C 345.53125 323.605469 340.332031 318.40625 340.332031 312.007812 C 340.332031 305.605469 345.53125 300.40625 351.929688 300.40625 C 434.929688 300.507812 502.128906 367.707031 502.230469 450.707031 C 502.332031 457.207031 497.128906 462.40625 490.730469 462.40625 Z M 490.730469 462.40625 " style=" stroke:none;fill-rule:nonzero;fill:rgb(90.196078%,90.588235%,90.980392%);fill-opacity:1;" />
</g>
</svg>