<?xml version="1.0" encoding="UTF-8"?>
<svg width="48px" height="48px" viewBox="0 0 48 48" version="1.1" xmlns="http://www.w3.org/2000/svg" xmlns:xlink="http://www.w3.org/1999/xlink">
    <!-- Generator: Sketch 60 (88103) - https://sketch.com -->
    <title>Group 32 Copy</title>
    <desc>Created with Sketch.</desc>
    <g id="components" stroke="none" stroke-width="1" fill="none" fill-rule="evenodd">
        <g id="new-products-auction" transform="translate(-998.000000, -429.000000)">
            <g id="Social-media-№7" transform="translate(848.000000, 398.000000)">
                <g id="Group-32-Copy" transform="translate(150.000000, 31.000000)">
                    <rect id="Rectangle-Copy-61" fill="#F8F9FA" x="0" y="0" width="48" height="48" rx="24"></rect>
                    <g id="twitter" transform="translate(14.000000, 16.000000)" fill="#5A5A5A" fill-rule="nonzero">
                        <path d="M23,2.13092308 C22.1446875,2.49230769 21.2333125,2.73184615 20.283125,2.84815385 C21.260625,2.286 22.0066875,1.40261538 22.3574375,0.337846154 C21.4460625,0.861230769 20.4398125,1.23092308 19.3674375,1.43723077 C18.5020625,0.549692308 17.2686875,0 15.9231875,0 C13.3126875,0 11.2110625,2.04092308 11.2110625,4.54292308 C11.2110625,4.90292308 11.2426875,5.24907692 11.3203125,5.57861538 C7.40025,5.39446154 3.9315625,3.58476923 1.601375,0.828 C1.1945625,1.50784615 0.9559375,2.286 0.9559375,3.12369231 C0.9559375,4.69661538 1.796875,6.09092308 3.050375,6.89815385 C2.2928125,6.88430769 1.549625,6.67246154 0.92,6.33876923 C0.92,6.35261538 0.92,6.37061538 0.92,6.38861538 C0.92,8.59569231 2.5544375,10.4289231 4.69775,10.8512308 C4.3139375,10.9523077 3.895625,11.0007692 3.4615,11.0007692 C3.159625,11.0007692 2.854875,10.9841538 2.5688125,10.9232308 C3.17975,12.7218462 4.913375,14.0441538 6.97475,14.0870769 C5.3705,15.2958462 3.3335625,16.0241538 1.1284375,16.0241538 C0.74175,16.0241538 0.370875,16.0075385 0,15.9618462 C2.0886875,17.2592308 4.5640625,18 7.2335,18 C15.91025,18 20.654,11.0769231 20.654,5.076 C20.654,4.87523077 20.6468125,4.68138462 20.63675,4.48892308 C21.5725625,3.84923077 22.358875,3.05030769 23,2.13092308 Z" id="Path"></path>
                    </g>
                </g>
            </g>
        </g>
    </g>
</svg>