<?xml version="1.0" encoding="UTF-8"?>
<svg width="48px" height="48px" viewBox="0 0 48 48" version="1.1" xmlns="http://www.w3.org/2000/svg" xmlns:xlink="http://www.w3.org/1999/xlink">
    <!-- Generator: Sketch 60 (88103) - https://sketch.com -->
    <title>Group 33 Copy</title>
    <desc>Created with Sketch.</desc>
    <g id="components" stroke="none" stroke-width="1" fill="none" fill-rule="evenodd">
        <g id="new-products-auction" transform="translate(-1072.000000, -429.000000)">
            <g id="Social-media-№7" transform="translate(848.000000, 398.000000)">
                <g id="Group-33-Copy" transform="translate(224.000000, 31.000000)">
                    <rect id="Rectangle-Copy-62" fill="#F8F9FA" x="0" y="0" width="48" height="48" rx="24"></rect>
                    <g id="default/dribbble-copy-2" transform="translate(13.000000, 13.000000)" fill="#5A5A5A" fill-rule="nonzero">
                        <path d="M10.9996916,0 C4.9344584,0 0,4.93489397 0,11.0001544 C0,17.0654148 4.9344584,22 10.9996916,22 C17.0652332,22 22,17.0657235 22,11.0001544 C22,4.93489397 17.0652332,0 10.9996916,0 L10.9996916,0 Z M18.2379457,5.1917814 C19.4926833,6.74885268 20.2552702,8.7153383 20.2904239,10.8581253 C19.8728975,10.7722903 18.104732,10.442227 15.9918143,10.442227 C15.3100191,10.442227 14.5924535,10.4764992 13.8730377,10.5654218 C13.8122898,10.4175263 13.7515418,10.2702483 13.6877102,10.1214265 C13.5011494,9.68206251 13.3000953,9.2460949 13.0919489,8.81661123 C16.3439673,7.47505368 17.9126205,5.61323734 18.2379457,5.1917814 L18.2379457,5.1917814 Z M10.9996916,1.72194855 C13.3435748,1.72194855 15.4860955,2.59388377 17.1225891,4.02992155 C16.8635625,4.38375928 15.458651,6.14214138 12.3228863,7.32839319 C10.8714118,4.67183136 9.28271473,2.47192399 8.90465912,1.96123672 C9.57843687,1.8050047 10.2796591,1.72194855 10.9996916,1.72194855 L10.9996916,1.72194855 Z M7.00790536,2.62352462 C7.3282967,3.06535865 8.91946064,5.2887317 10.4082474,7.92398917 C6.41276071,8.97562208 2.86471182,9.04416656 2.00838192,9.04416656 L1.91741422,9.04416656 C2.5326026,6.20543696 4.44816663,3.84651874 7.00790536,2.62352462 L7.00790536,2.62352462 Z M1.70649249,11.014666 C1.70649249,10.9380938 1.70772595,10.8615216 1.71019287,10.7852582 C1.76569859,10.7858757 1.8477237,10.7858757 1.95410967,10.7858757 C3.10739516,10.7858757 7.11059094,10.6904692 11.2358993,9.46469622 C11.4862918,9.9550054 11.724658,10.4527248 11.9463725,10.9501354 C11.8421451,10.980085 11.7394595,11.0100347 11.6373907,11.0433806 C6.9924871,12.5454928 4.43953241,16.5219991 4.04667526,17.1719366 C2.59119197,15.5299566 1.70649249,13.3742018 1.70649249,11.014666 L1.70649249,11.014666 Z M10.9996916,20.306766 C8.86827203,20.306766 6.90121103,19.5839614 5.33163265,18.3720826 C5.59713501,17.8508975 7.52410854,14.3770508 12.6142913,12.6032307 C12.617375,12.6019957 12.620767,12.6007607 12.6244674,12.5998344 C13.9007905,15.9270206 14.4413546,18.7194364 14.5896782,19.5848877 C13.4851144,20.0498786 12.2720061,20.306766 10.9996916,20.306766 L10.9996916,20.306766 Z M16.263484,18.6687999 C16.1389045,17.952788 15.6381195,15.3357473 14.4823671,12.1437975 C15.1305506,12.0428333 15.7611572,12.0030034 16.3526015,12.0030034 C18.2949933,12.0030034 19.8143081,12.4287819 20.1673862,12.5368476 C19.7477013,15.0714496 18.2983853,17.2648731 16.263484,18.6687999 L16.263484,18.6687999 Z" id="Shape-Copy-5"></path>
                    </g>
                </g>
            </g>
        </g>
    </g>
</svg>